<?xml version="1.0" standalone="no"?>
<!DOCTYPE svg PUBLIC "-//W3C//DTD SVG 20010904//EN"
 "http://www.w3.org/TR/2001/REC-SVG-20010904/DTD/svg10.dtd">
<svg version="1.0" xmlns="http://www.w3.org/2000/svg"
 width="532.000000pt" height="496.000000pt" viewBox="0 0 532.000000 496.000000"
 preserveAspectRatio="xMidYMid meet">

<g transform="translate(0.000000,496.000000) scale(0.100000,-0.100000)"
fill="#000000" stroke="none">
<path d="M3365 3759 c-172 -57 -310 -175 -380 -327 -14 -29 -25 -61 -25 -72 0
-10 -4 -21 -9 -24 -5 -3 -11 -18 -14 -33 -2 -16 -25 -86 -51 -158 -25 -71 -46
-134 -46 -138 0 -4 260 -6 578 -4 637 3 592 -1 727 70 73 39 191 154 227 222
15 28 47 113 73 190 25 77 49 149 54 160 5 11 14 38 21 60 7 22 15 46 17 53 6
15 -1124 16 -1172 1z"/>
<path d="M2067 2915 c-38 -13 -93 -39 -123 -57 -70 -42 -168 -140 -203 -203
-16 -27 -66 -162 -111 -300 -45 -137 -86 -259 -91 -270 -5 -11 -22 -65 -39
-120 -17 -55 -36 -108 -41 -117 -5 -10 -9 -27 -9 -37 0 -11 -4 -23 -10 -26 -5
-3 -10 -16 -10 -29 0 -12 -4 -26 -8 -31 -5 -6 -19 -44 -31 -85 -13 -41 -27
-84 -31 -95 -5 -11 -22 -65 -39 -120 -18 -55 -36 -109 -41 -120 -5 -11 -16
-47 -25 -80 -9 -33 -25 -85 -36 -115 -11 -30 -22 -59 -23 -65 -2 -5 -6 -17 -9
-25 -10 -27 -15 -110 -6 -110 5 0 9 -5 9 -11 0 -6 -6 -9 -12 -7 -18 6 -38 -16
-38 -41 0 -12 -4 -21 -10 -21 -5 0 -10 -7 -10 -15 0 -13 39 -15 288 -15 297 0
342 5 427 46 62 30 175 105 175 117 0 4 13 22 29 39 54 57 90 134 155 328 36
107 74 220 85 250 l19 55 379 5 c364 5 380 6 443 28 129 46 235 127 303 229
48 73 137 310 174 461 l5 22 -521 0 c-490 0 -521 1 -521 18 0 9 40 135 89 280
l89 262 -302 0 c-292 0 -303 -1 -369 -25z m-870 -1977 c-3 -7 -5 -2 -5 12 0
14 2 19 5 13 2 -7 2 -19 0 -25z"/>
</g>
</svg>
